<svg width="20" height="20" viewBox="0 0 20 20" fill="none" xmlns="http://www.w3.org/2000/svg">
<rect x="0.5" y="0.5" width="19" height="19" rx="9.5" fill="#F5222D" stroke="white"/>
<path d="M9.99316 15.1641C12.085 15.1641 13.5752 13.9883 13.5752 12.334C13.5752 11.1104 12.7275 10.0986 11.4492 9.79785V9.77051C12.5225 9.42871 13.1719 8.59473 13.1719 7.56934C13.1719 6.06543 11.8389 4.97168 9.99316 4.97168C8.16113 4.97168 6.80762 6.07227 6.80762 7.5625C6.80762 8.60156 7.4707 9.44238 8.53711 9.77051V9.79785C7.26562 10.0918 6.41797 11.1035 6.41797 12.334C6.41797 13.9814 7.9082 15.1641 9.99316 15.1641ZM9.99316 14.0908C8.63965 14.0908 7.66895 13.3184 7.66895 12.2451C7.66895 11.165 8.63965 10.3926 9.99316 10.3926C11.3535 10.3926 12.3174 11.1582 12.3174 12.2451C12.3174 13.3184 11.3535 14.0908 9.99316 14.0908ZM9.99316 9.3125C8.83789 9.3125 8.03125 8.63574 8.03125 7.67871C8.03125 6.71484 8.83789 6.03125 9.99316 6.03125C11.1484 6.03125 11.9551 6.70801 11.9551 7.67871C11.9551 8.63574 11.1416 9.3125 9.99316 9.3125Z" fill="white"/>
</svg>
